<svg xmlns="http://www.w3.org/2000/svg" width="336" height="336.807"><path d="M8.876 7.71v321.386h23.13v7.711H0V0h32.006v7.71zM97.989 109.594v16.264h.463c4.338-6.191 9.563-10.998 15.684-14.406 6.117-3.402 13.129-5.11 21.027-5.11 7.588 0 14.521 1.475 20.793 4.415 6.274 2.945 11.038 8.131 14.291 15.567 3.56-5.265 8.4-9.913 14.521-13.94 6.117-4.025 13.358-6.042 21.724-6.042 6.351 0 12.234.776 17.66 2.325 5.418 1.549 10.065 4.027 13.938 7.434 3.869 3.41 6.889 7.863 9.062 13.357 2.167 5.504 3.253 12.122 3.253 19.869v80.385h-32.993v-68.074c0-4.025-.154-7.82-.465-11.385-.313-3.56-1.161-6.656-2.555-9.293-1.395-2.631-3.45-4.724-6.157-6.274-2.711-1.543-6.391-2.322-11.037-2.322-4.646 0-8.403.896-11.269 2.671-2.868 1.784-5.112 4.109-6.737 6.971-1.626 2.869-2.711 6.12-3.252 9.762a74.395 74.395 0 0 0-.814 11.035v66.91h-32.991v-67.375c0-3.562-.081-7.087-.23-10.57-.158-3.487-.814-6.7-1.978-9.645-1.162-2.94-3.099-5.304-5.809-7.088-2.711-1.775-6.699-2.671-11.965-2.671-1.551 0-3.603.349-6.156 1.048-2.556.697-5.036 2.016-7.435 3.949-2.404 1.938-4.454 4.726-6.158 8.363-1.705 3.642-2.556 8.402-2.556 14.287v69.701h-32.99V109.594zM308.444 329.096V7.71h-23.13V0h32.008v336.807h-32.008v-7.711z"/></svg>
